<svg id="Group_22731" data-name="Group 22731" xmlns="http://www.w3.org/2000/svg" xmlns:xlink="http://www.w3.org/1999/xlink" width="86.563" height="88.251" viewBox="0 0 86.563 88.251">
  <defs>
    <clipPath id="clip-path">
      <rect id="Rectangle_74863" data-name="Rectangle 74863" width="86.563" height="88.251" fill="none"/>
    </clipPath>
  </defs>
  <path id="Path_38734" data-name="Path 38734" d="M284.271,278.479l11.418-17L278.65,272.871l-17.039-11.391,11.418,17-11.418,17,17.039-11.391,17.039,11.391Z" transform="translate(-234.449 -234.332)" fill="#656669"/>
  <path id="Path_38735" data-name="Path 38735" d="M275.284,277.877l20.4,13.641-34.077-34Z" transform="translate(-234.449 -230.783)" fill="#14294c"/>
  <path id="Path_38736" data-name="Path 38736" d="M261.611,257.52l34.077,34-13.673-20.356Z" transform="translate(-234.449 -230.783)" fill="#2e4160"/>
  <path id="Path_38737" data-name="Path 38737" d="M275.284,271.162l-13.673,20.357,34.077-34Z" transform="translate(-234.449 -230.784)" fill="#14294c"/>
  <path id="Path_38738" data-name="Path 38738" d="M295.689,257.52l-34.077,34,20.4-13.641Z" transform="translate(-234.45 -230.783)" fill="#2e4160"/>
  <g id="Group_21674" data-name="Group 21674">
    <g id="Group_21673" data-name="Group 21673" clip-path="url(#clip-path)">
      <path id="Path_38739" data-name="Path 38739" d="M386.274,376.733a5.169,5.169,0,1,1-5.169-5.157,5.163,5.163,0,0,1,5.169,5.157" transform="translate(-336.905 -332.997)" fill="#14294c"/>
      <path id="Path_38740" data-name="Path 38740" d="M316.319,321.642a12.794,12.794,0,1,1,12.824-12.794,12.824,12.824,0,0,1-12.824,12.794m0-25.4a12.608,12.608,0,1,0,12.637,12.608,12.637,12.637,0,0,0-12.637-12.608" transform="translate(-271.985 -265.316)" fill="#14294c"/>
      <path id="Path_38741" data-name="Path 38741" d="M297.478,305.023a14.972,14.972,0,1,1,15.007-14.972,15.006,15.006,0,0,1-15.007,14.972m0-29.068a14.1,14.1,0,1,0,14.13,14.1,14.129,14.129,0,0,0-14.13-14.1" transform="translate(-253.144 -246.52)" fill="#14294c"/>
      <path id="Path_38742" data-name="Path 38742" d="M126.984,159.149a34.719,34.719,0,1,1,24.578-10.157,34.573,34.573,0,0,1-24.578,10.157m0-68.734a34.1,34.1,0,1,0,24.138,9.975,33.953,33.953,0,0,0-24.138-9.975" transform="translate(-82.65 -80.471)" fill="#14294c"/>
      <rect id="Rectangle_74809" data-name="Rectangle 74809" width="0.533" height="4.111" transform="translate(44.068 5.523)" fill="#14294c"/>
      <rect id="Rectangle_74810" data-name="Rectangle 74810" width="0.533" height="4.111" transform="translate(44.068 78.367)" fill="#14294c"/>
      <rect id="Rectangle_74811" data-name="Rectangle 74811" width="0.415" height="2.495" transform="translate(37.714 7.735) rotate(-10.024)" fill="#14294c"/>
      <rect id="Rectangle_74812" data-name="Rectangle 74812" width="0.415" height="2.494" transform="translate(50.112 77.881) rotate(-10.021)" fill="#14294c"/>
      <path id="Path_38743" data-name="Path 38743" d="M304.276,91.978l-.855-2.344.39-.142.855,2.344Z" transform="translate(-271.918 -80.201)" fill="#14294c"/>
      <path id="Path_38744" data-name="Path 38744" d="M539.467,736.648l-.855-2.344.39-.142.855,2.344Z" transform="translate(-482.691 -657.938)" fill="#14294c"/>
      <path id="Path_38745" data-name="Path 38745" d="M248.6,117.7l-1.25-2.16.36-.207,1.25,2.16Z" transform="translate(-221.667 -103.358)" fill="#14294c"/>
      <path id="Path_38746" data-name="Path 38746" d="M592.426,711.83l-1.25-2.16.36-.207,1.25,2.16Z" transform="translate(-529.797 -635.803)" fill="#14294c"/>
      <path id="Path_38747" data-name="Path 38747" d="M198.342,152.72l-1.607-1.911.318-.266,1.607,1.911Z" transform="translate(-176.309 -134.913)" fill="#14294c"/>
      <path id="Path_38748" data-name="Path 38748" d="M640.358,678.26l-1.607-1.911.318-.266,1.607,1.911Z" transform="translate(-572.433 -605.889)" fill="#14294c"/>
      <path id="Path_38749" data-name="Path 38749" d="M155.033,195.979l-1.915-1.6.267-.317,1.915,1.6Z" transform="translate(-137.22 -173.91)" fill="#14294c"/>
      <path id="Path_38750" data-name="Path 38750" d="M681.808,636.957l-1.915-1.6.267-.318,1.915,1.6Z" transform="translate(-609.303 -569.104)" fill="#14294c"/>
      <path id="Path_38751" data-name="Path 38751" d="M119.99,246.157l-2.165-1.247.208-.359L120.2,245.8Z" transform="translate(-105.592 -219.161)" fill="#14294c"/>
      <path id="Path_38752" data-name="Path 38752" d="M715.518,589.179l-2.165-1.247.208-.359,2.165,1.247Z" transform="translate(-639.289 -526.568)" fill="#14294c"/>
      <path id="Path_38753" data-name="Path 38753" d="M94.275,301.735l-2.35-.853.142-.389,2.35.853Z" transform="translate(-82.382 -269.295)" fill="#14294c"/>
      <path id="Path_38754" data-name="Path 38754" d="M740.46,536.374l-2.349-.853.142-.389,2.349.853Z" transform="translate(-661.476 -479.572)" fill="#14294c"/>
      <rect id="Rectangle_74813" data-name="Rectangle 74813" width="0.414" height="2.5" transform="translate(7.912 37.804) rotate(-80.032)" fill="#14294c"/>
      <rect id="Rectangle_74814" data-name="Rectangle 74814" width="0.414" height="2.5" transform="translate(78.224 50.172) rotate(-80.025)" fill="#14294c"/>
      <rect id="Rectangle_74815" data-name="Rectangle 74815" width="4.121" height="0.532" transform="translate(5.767 43.734)" fill="#14294c"/>
      <rect id="Rectangle_74816" data-name="Rectangle 74816" width="4.121" height="0.532" transform="translate(78.783 43.735)" fill="#14294c"/>
      <rect id="Rectangle_74817" data-name="Rectangle 74817" width="2.5" height="0.414" transform="matrix(0.985, -0.174, 0.174, 0.985, 7.912, 50.198)" fill="#14294c"/>
      <rect id="Rectangle_74818" data-name="Rectangle 74818" width="2.5" height="0.414" transform="translate(78.224 37.829) rotate(-10.014)" fill="#14294c"/>
      <path id="Path_38755" data-name="Path 38755" d="M92.069,536.373l-.142-.389,2.349-.853.142.389Z" transform="translate(-82.383 -479.57)" fill="#14294c"/>
      <path id="Path_38756" data-name="Path 38756" d="M738.253,301.734l-.142-.389,2.349-.853.142.389Z" transform="translate(-661.477 -269.293)" fill="#14294c"/>
      <path id="Path_38757" data-name="Path 38757" d="M118.034,589.176l-.208-.359,2.165-1.247.208.359Z" transform="translate(-105.593 -526.566)" fill="#14294c"/>
      <path id="Path_38758" data-name="Path 38758" d="M713.56,246.155l-.208-.359,2.165-1.247.208.359Z" transform="translate(-639.289 -219.159)" fill="#14294c"/>
      <path id="Path_38759" data-name="Path 38759" d="M153.389,636.953l-.267-.317,1.915-1.6.267.318Z" transform="translate(-137.224 -569.1)" fill="#14294c"/>
      <path id="Path_38760" data-name="Path 38760" d="M680.162,195.974l-.267-.317,1.915-1.6.267.317Z" transform="translate(-609.305 -173.906)" fill="#14294c"/>
      <path id="Path_38761" data-name="Path 38761" d="M197.056,678.252l-.318-.266,1.607-1.911.318.266Z" transform="translate(-176.312 -605.881)" fill="#14294c"/>
      <path id="Path_38762" data-name="Path 38762" d="M639.072,152.714l-.318-.266,1.607-1.911.318.266Z" transform="translate(-572.436 -134.908)" fill="#14294c"/>
      <path id="Path_38763" data-name="Path 38763" d="M247.712,711.822l-.36-.207,1.25-2.16.36.207Z" transform="translate(-221.671 -635.796)" fill="#14294c"/>
      <path id="Path_38764" data-name="Path 38764" d="M591.538,117.694l-.36-.207,1.25-2.16.36.207Z" transform="translate(-529.8 -103.353)" fill="#14294c"/>
      <path id="Path_38765" data-name="Path 38765" d="M303.814,736.639l-.39-.142.855-2.344.39.142Z" transform="translate(-271.921 -657.93)" fill="#14294c"/>
      <path id="Path_38766" data-name="Path 38766" d="M539,91.974l-.39-.142.855-2.344.39.142Z" transform="translate(-482.693 -80.197)" fill="#14294c"/>
      <rect id="Rectangle_74819" data-name="Rectangle 74819" width="2.495" height="0.415" transform="translate(37.715 80.265) rotate(-80.024)" fill="#14294c"/>
      <rect id="Rectangle_74820" data-name="Rectangle 74820" width="2.495" height="0.415" transform="matrix(0.173, -0.985, 0.985, 0.173, 50.113, 10.119)" fill="#14294c"/>
      <rect id="Rectangle_74821" data-name="Rectangle 74821" width="0.178" height="1.233" transform="translate(42.993 8.209) rotate(-1.998)" fill="#14294c"/>
      <rect id="Rectangle_74822" data-name="Rectangle 74822" width="0.178" height="1.233" transform="translate(45.455 78.566) rotate(-2.008)" fill="#14294c"/>
      <rect id="Rectangle_74823" data-name="Rectangle 74823" width="0.178" height="1.233" transform="translate(41.742 8.278) rotate(-4.004)" fill="#14294c"/>
      <rect id="Rectangle_74824" data-name="Rectangle 74824" width="0.178" height="1.233" transform="translate(46.664 78.506) rotate(-4.009)" fill="#14294c"/>
      <rect id="Rectangle_74825" data-name="Rectangle 74825" width="0.178" height="1.233" transform="translate(40.494 8.39) rotate(-6.005)" fill="#14294c"/>
      <rect id="Rectangle_74826" data-name="Rectangle 74826" width="0.178" height="1.233" transform="translate(47.87 78.404) rotate(-6.013)" fill="#14294c"/>
      <rect id="Rectangle_74827" data-name="Rectangle 74827" width="0.178" height="1.232" transform="translate(39.25 8.546) rotate(-8.009)" fill="#14294c"/>
      <rect id="Rectangle_74828" data-name="Rectangle 74828" width="0.178" height="1.233" transform="translate(49.071 78.26) rotate(-8.02)" fill="#14294c"/>
      <path id="Path_38767" data-name="Path 38767" d="M354.542,87.432l-.257-1.206.174-.037.257,1.206Z" transform="translate(-317.501 -77.241)" fill="#14294c"/>
      <rect id="Rectangle_74829" data-name="Rectangle 74829" width="0.178" height="1.233" transform="matrix(0.978, -0.208, 0.208, 0.978, 51.455, 77.847)" fill="#14294c"/>
      <path id="Path_38768" data-name="Path 38768" d="M342.831,90.111l-.3-1.2.173-.043.3,1.2Z" transform="translate(-306.968 -79.645)" fill="#14294c"/>
      <path id="Path_38769" data-name="Path 38769" d="M507.253,748.03l-.3-1.2.172-.043.3,1.2Z" transform="translate(-454.32 -669.255)" fill="#14294c"/>
      <path id="Path_38770" data-name="Path 38770" d="M331.222,93.191l-.34-1.185.171-.049.34,1.185Z" transform="translate(-296.527 -82.41)" fill="#14294c"/>
      <path id="Path_38771" data-name="Path 38771" d="M518.559,744.985l-.341-1.185.171-.049.341,1.185Z" transform="translate(-464.415 -666.531)" fill="#14294c"/>
      <path id="Path_38772" data-name="Path 38772" d="M319.73,96.679l-.382-1.172.169-.055.382,1.172Z" transform="translate(-286.192 -85.542)" fill="#14294c"/>
      <path id="Path_38773" data-name="Path 38773" d="M529.754,741.55l-.382-1.172.169-.055.382,1.172Z" transform="translate(-474.41 -663.459)" fill="#14294c"/>
      <path id="Path_38774" data-name="Path 38774" d="M297.153,104.837l-.463-1.143.165-.066.463,1.143Z" transform="translate(-265.887 -92.869)" fill="#14294c"/>
      <path id="Path_38775" data-name="Path 38775" d="M551.758,733.525l-.463-1.143.165-.067.463,1.143Z" transform="translate(-494.057 -656.283)" fill="#14294c"/>
      <path id="Path_38776" data-name="Path 38776" d="M286.094,109.506l-.5-1.126.162-.072.5,1.126Z" transform="translate(-255.941 -97.063)" fill="#14294c"/>
      <path id="Path_38777" data-name="Path 38777" d="M562.535,728.943l-.5-1.126.162-.072.5,1.126Z" transform="translate(-503.68 -652.187)" fill="#14294c"/>
      <path id="Path_38778" data-name="Path 38778" d="M275.207,114.556l-.541-1.108.16-.078.541,1.108Z" transform="translate(-246.149 -101.6)" fill="#14294c"/>
      <path id="Path_38779" data-name="Path 38779" d="M573.148,723.989l-.542-1.108.16-.078.542,1.108Z" transform="translate(-513.156 -647.759)" fill="#14294c"/>
      <path id="Path_38780" data-name="Path 38780" d="M264.506,119.981l-.58-1.088.157-.083.58,1.088Z" transform="translate(-236.524 -106.474)" fill="#14294c"/>
      <path id="Path_38781" data-name="Path 38781" d="M583.584,718.671l-.58-1.089.157-.083.58,1.089Z" transform="translate(-522.474 -643.005)" fill="#14294c"/>
      <path id="Path_38782" data-name="Path 38782" d="M243.708,131.934l-.655-1.046.151-.094.655,1.046Z" transform="translate(-217.818 -117.215)" fill="#14294c"/>
      <path id="Path_38783" data-name="Path 38783" d="M603.871,706.963l-.655-1.046.151-.094.655,1.045Z" transform="translate(-540.588 -632.541)" fill="#14294c"/>
      <path id="Path_38784" data-name="Path 38784" d="M233.64,138.451l-.691-1.022.147-.1.691,1.022Z" transform="translate(-208.763 -123.072)" fill="#14294c"/>
      <path id="Path_38785" data-name="Path 38785" d="M613.7,700.587l-.691-1.022.147-.1.691,1.022Z" transform="translate(-549.362 -626.844)" fill="#14294c"/>
      <path id="Path_38786" data-name="Path 38786" d="M223.806,145.314l-.726-1,.144-.1.726,1Z" transform="translate(-199.919 -129.239)" fill="#14294c"/>
      <path id="Path_38787" data-name="Path 38787" d="M623.3,693.875l-.726-1,.144-.1.726,1Z" transform="translate(-557.931 -620.846)" fill="#14294c"/>
      <path id="Path_38788" data-name="Path 38788" d="M214.219,152.515l-.76-.971.14-.109.76.971Z" transform="translate(-191.296 -135.712)" fill="#14294c"/>
      <path id="Path_38789" data-name="Path 38789" d="M632.657,686.833l-.761-.971.14-.109.761.971Z" transform="translate(-566.29 -614.555)" fill="#14294c"/>
      <path id="Path_38790" data-name="Path 38790" d="M195.835,167.9l-.827-.916.132-.119.827.916Z" transform="translate(-174.762 -149.539)" fill="#14294c"/>
      <path id="Path_38791" data-name="Path 38791" d="M650.614,671.8l-.827-.916.132-.119.827.916Z" transform="translate(-582.323 -601.12)" fill="#14294c"/>
      <path id="Path_38792" data-name="Path 38792" d="M187.06,176.065l-.858-.887.128-.123.858.887Z" transform="translate(-166.869 -156.88)" fill="#14294c"/>
      <path id="Path_38793" data-name="Path 38793" d="M659.189,663.82l-.858-.887.128-.123.859.887Z" transform="translate(-589.98 -593.994)" fill="#14294c"/>
      <path id="Path_38794" data-name="Path 38794" d="M178.578,184.533l-.888-.856.123-.128.888.856Z" transform="translate(-159.241 -164.492)" fill="#14294c"/>
      <path id="Path_38795" data-name="Path 38795" d="M667.48,655.554l-.889-.856.123-.127.889.856Z" transform="translate(-597.382 -586.609)" fill="#14294c"/>
      <path id="Path_38796" data-name="Path 38796" d="M170.4,193.292l-.918-.825.119-.132.918.825Z" transform="translate(-151.884 -172.366)" fill="#14294c"/>
      <path id="Path_38797" data-name="Path 38797" d="M675.48,647l-.918-.825.119-.132.918.825Z" transform="translate(-604.526 -578.97)" fill="#14294c"/>
      <path id="Path_38798" data-name="Path 38798" d="M154.986,211.639l-.973-.759.109-.14.974.759Z" transform="translate(-138.022 -188.86)" fill="#14294c"/>
      <path id="Path_38799" data-name="Path 38799" d="M690.562,629.1l-.974-.759.109-.14.974.759Z" transform="translate(-617.992 -562.975)" fill="#14294c"/>
      <path id="Path_38800" data-name="Path 38800" d="M147.772,221.207l-1-.724.1-.143,1,.724Z" transform="translate(-131.534 -197.462)" fill="#14294c"/>
      <path id="Path_38801" data-name="Path 38801" d="M697.625,619.762l-1-.724.1-.143,1,.724Z" transform="translate(-624.298 -554.637)" fill="#14294c"/>
      <path id="Path_38802" data-name="Path 38802" d="M140.9,231.023l-1.024-.689.1-.147,1.024.689Z" transform="translate(-125.352 -206.287)" fill="#14294c"/>
      <path id="Path_38803" data-name="Path 38803" d="M704.358,610.189l-1.025-.689.1-.147,1.025.689Z" transform="translate(-630.31 -546.087)" fill="#14294c"/>
      <path id="Path_38804" data-name="Path 38804" d="M134.374,241.072l-1.047-.653.094-.15,1.047.653Z" transform="translate(-119.484 -215.323)" fill="#14294c"/>
      <path id="Path_38805" data-name="Path 38805" d="M710.756,600.389l-1.048-.653.094-.15,1.048.653Z" transform="translate(-636.023 -537.334)" fill="#14294c"/>
      <path id="Path_38806" data-name="Path 38806" d="M122.4,261.826l-1.091-.579.083-.157,1.091.579Z" transform="translate(-108.715 -233.983)" fill="#14294c"/>
      <path id="Path_38807" data-name="Path 38807" d="M722.5,580.156l-1.091-.579.083-.157,1.091.579Z" transform="translate(-646.511 -519.262)" fill="#14294c"/>
      <path id="Path_38808" data-name="Path 38808" d="M116.968,272.505l-1.11-.54.078-.159,1.11.54Z" transform="translate(-103.829 -243.585)" fill="#14294c"/>
      <path id="Path_38809" data-name="Path 38809" d="M727.839,569.746l-1.111-.541.078-.159,1.111.541Z" transform="translate(-651.276 -509.965)" fill="#14294c"/>
      <path id="Path_38810" data-name="Path 38810" d="M111.913,283.369l-1.128-.5.072-.162,1.128.5Z" transform="translate(-99.282 -253.353)" fill="#14294c"/>
      <path id="Path_38811" data-name="Path 38811" d="M732.81,559.16l-1.129-.5.072-.162,1.129.5Z" transform="translate(-655.715 -500.511)" fill="#14294c"/>
      <path id="Path_38812" data-name="Path 38812" d="M107.241,294.4l-1.145-.462.067-.164,1.145.462Z" transform="translate(-95.08 -263.276)" fill="#14294c"/>
      <path id="Path_38813" data-name="Path 38813" d="M737.409,548.409l-1.145-.462.067-.164,1.146.462Z" transform="translate(-659.821 -490.909)" fill="#14294c"/>
      <path id="Path_38814" data-name="Path 38814" d="M99.072,316.931,97.9,316.55l.055-.169,1.175.381Z" transform="translate(-87.733 -283.533)" fill="#14294c"/>
      <path id="Path_38815" data-name="Path 38815" d="M745.465,526.466l-1.175-.381.055-.169,1.175.381Z" transform="translate(-667.014 -471.313)" fill="#14294c"/>
      <path id="Path_38816" data-name="Path 38816" d="M95.585,328.4l-1.188-.34.049-.17,1.188.34Z" transform="translate(-84.596 -293.847)" fill="#14294c"/>
      <path id="Path_38817" data-name="Path 38817" d="M748.913,515.3l-1.188-.34.049-.17,1.188.34Z" transform="translate(-670.093 -461.339)" fill="#14294c"/>
      <rect id="Rectangle_74830" data-name="Rectangle 74830" width="0.177" height="1.235" transform="translate(9.48 35.422) rotate(-76.025)" fill="#14294c"/>
      <path id="Path_38818" data-name="Path 38818" d="M751.969,504.021l-1.2-.3.043-.172,1.2.3Z" transform="translate(-672.821 -451.27)" fill="#14294c"/>
      <rect id="Rectangle_74831" data-name="Rectangle 74831" width="0.177" height="1.235" transform="translate(9.201 36.641) rotate(-78.013)" fill="#14294c"/>
      <rect id="Rectangle_74832" data-name="Rectangle 74832" width="0.177" height="1.236" transform="translate(78.224 51.277) rotate(-78.016)" fill="#14294c"/>
      <rect id="Rectangle_74833" data-name="Rectangle 74833" width="0.177" height="1.236" transform="translate(8.772 39.104) rotate(-82.016)" fill="#14294c"/>
      <rect id="Rectangle_74834" data-name="Rectangle 74834" width="0.177" height="1.235" transform="translate(78.65 48.901) rotate(-82.016)" fill="#14294c"/>
      <rect id="Rectangle_74835" data-name="Rectangle 74835" width="0.177" height="1.235" transform="translate(8.622 40.345) rotate(-83.999)" fill="#14294c"/>
      <rect id="Rectangle_74836" data-name="Rectangle 74836" width="0.177" height="1.235" transform="translate(78.801 47.703) rotate(-83.999)" fill="#14294c"/>
      <rect id="Rectangle_74837" data-name="Rectangle 74837" width="0.177" height="1.235" transform="translate(8.516 41.591) rotate(-86.005)" fill="#14294c"/>
      <rect id="Rectangle_74838" data-name="Rectangle 74838" width="0.177" height="1.235" transform="matrix(0.069, -0.998, 0.998, 0.069, 78.909, 46.501)" fill="#14294c"/>
      <rect id="Rectangle_74839" data-name="Rectangle 74839" width="0.177" height="1.235" transform="matrix(0.035, -0.999, 0.999, 0.035, 8.453, 42.839)" fill="#14294c"/>
      <rect id="Rectangle_74840" data-name="Rectangle 74840" width="0.177" height="1.235" transform="translate(78.975 45.296) rotate(-88.006)" fill="#14294c"/>
      <rect id="Rectangle_74841" data-name="Rectangle 74841" width="1.236" height="0.177" transform="matrix(0.999, -0.035, 0.035, 0.999, 8.453, 45.162)" fill="#14294c"/>
      <rect id="Rectangle_74842" data-name="Rectangle 74842" width="1.236" height="0.177" transform="matrix(0.999, -0.035, 0.035, 0.999, 78.975, 42.705)" fill="#14294c"/>
      <rect id="Rectangle_74843" data-name="Rectangle 74843" width="1.235" height="0.177" transform="translate(8.516 46.41) rotate(-3.995)" fill="#14294c"/>
      <rect id="Rectangle_74844" data-name="Rectangle 74844" width="1.236" height="0.177" transform="translate(78.909 41.5) rotate(-3.995)" fill="#14294c"/>
      <rect id="Rectangle_74845" data-name="Rectangle 74845" width="1.235" height="0.177" transform="translate(8.622 47.656) rotate(-6.018)" fill="#14294c"/>
      <rect id="Rectangle_74846" data-name="Rectangle 74846" width="1.236" height="0.177" transform="translate(78.801 40.298) rotate(-6.051)" fill="#14294c"/>
      <rect id="Rectangle_74847" data-name="Rectangle 74847" width="1.235" height="0.177" transform="translate(8.772 48.898) rotate(-8.011)" fill="#14294c"/>
      <rect id="Rectangle_74848" data-name="Rectangle 74848" width="1.235" height="0.177" transform="matrix(0.99, -0.139, 0.139, 0.99, 78.65, 39.1)" fill="#14294c"/>
      <rect id="Rectangle_74849" data-name="Rectangle 74849" width="1.235" height="0.177" transform="translate(9.201 51.361) rotate(-12.027)" fill="#14294c"/>
      <rect id="Rectangle_74850" data-name="Rectangle 74850" width="1.235" height="0.177" transform="translate(78.224 36.724) rotate(-12.027)" fill="#14294c"/>
      <rect id="Rectangle_74851" data-name="Rectangle 74851" width="1.235" height="0.177" transform="translate(9.48 52.58) rotate(-14.028)" fill="#14294c"/>
      <path id="Path_38819" data-name="Path 38819" d="M750.813,339.982l-.043-.172,1.2-.3.043.172Z" transform="translate(-672.821 -304.262)" fill="#14294c"/>
      <path id="Path_38820" data-name="Path 38820" d="M94.447,515.3l-.049-.171,1.188-.34.049.17Z" transform="translate(-84.597 -461.339)" fill="#14294c"/>
      <rect id="Rectangle_74852" data-name="Rectangle 74852" width="1.235" height="0.177" transform="translate(77.633 34.383) rotate(-16.037)" fill="#14294c"/>
      <path id="Path_38821" data-name="Path 38821" d="M97.954,526.465,97.9,526.3l1.175-.381.055.169Z" transform="translate(-87.735 -471.313)" fill="#14294c"/>
      <path id="Path_38822" data-name="Path 38822" d="M744.344,316.931l-.055-.169,1.175-.381.055.169Z" transform="translate(-667.014 -283.534)" fill="#14294c"/>
      <path id="Path_38823" data-name="Path 38823" d="M106.162,548.408l-.067-.164,1.146-.462.067.165Z" transform="translate(-95.08 -490.908)" fill="#14294c"/>
      <path id="Path_38824" data-name="Path 38824" d="M736.329,294.4l-.067-.164,1.146-.462.067.164Z" transform="translate(-659.821 -263.274)" fill="#14294c"/>
      <path id="Path_38825" data-name="Path 38825" d="M110.857,559.159l-.072-.162,1.129-.5.072.162Z" transform="translate(-99.283 -500.51)" fill="#14294c"/>
      <path id="Path_38826" data-name="Path 38826" d="M731.754,283.368l-.072-.162,1.129-.5.072.162Z" transform="translate(-655.715 -253.353)" fill="#14294c"/>
      <path id="Path_38827" data-name="Path 38827" d="M115.936,569.746l-.078-.159,1.111-.54.078.159Z" transform="translate(-103.829 -509.965)" fill="#14294c"/>
      <path id="Path_38828" data-name="Path 38828" d="M726.809,272.5l-.078-.159,1.111-.541.078.159Z" transform="translate(-651.279 -243.582)" fill="#14294c"/>
      <path id="Path_38829" data-name="Path 38829" d="M121.4,580.155l-.083-.156,1.091-.578.083.157Z" transform="translate(-108.717 -519.262)" fill="#14294c"/>
      <path id="Path_38830" data-name="Path 38830" d="M721.5,261.824l-.083-.157,1.091-.579.083.157Z" transform="translate(-646.513 -233.981)" fill="#14294c"/>
      <path id="Path_38831" data-name="Path 38831" d="M133.421,600.386l-.094-.15,1.048-.653.094.15Z" transform="translate(-119.484 -537.331)" fill="#14294c"/>
      <path id="Path_38832" data-name="Path 38832" d="M709.8,241.067l-.094-.15,1.048-.653.094.15Z" transform="translate(-636.023 -215.318)" fill="#14294c"/>
      <path id="Path_38833" data-name="Path 38833" d="M139.975,610.188l-.1-.147,1.024-.689.1.147Z" transform="translate(-125.353 -546.086)" fill="#14294c"/>
      <path id="Path_38834" data-name="Path 38834" d="M703.433,231.02l-.1-.147,1.025-.689.1.147Z" transform="translate(-630.31 -206.285)" fill="#14294c"/>
      <path id="Path_38835" data-name="Path 38835" d="M146.878,619.759l-.1-.143,1-.724.1.143Z" transform="translate(-131.535 -554.635)" fill="#14294c"/>
      <path id="Path_38836" data-name="Path 38836" d="M696.731,221.2l-.1-.143,1-.725.1.143Z" transform="translate(-624.3 -197.459)" fill="#14294c"/>
      <path id="Path_38837" data-name="Path 38837" d="M154.123,629.093l-.109-.14.974-.759.109.14Z" transform="translate(-138.023 -562.973)" fill="#14294c"/>
      <path id="Path_38838" data-name="Path 38838" d="M689.7,211.638l-.109-.14.974-.759.109.14Z" transform="translate(-617.993 -188.86)" fill="#14294c"/>
      <path id="Path_38839" data-name="Path 38839" d="M169.6,647l-.119-.132.918-.825.119.132Z" transform="translate(-151.884 -578.966)" fill="#14294c"/>
      <path id="Path_38840" data-name="Path 38840" d="M674.682,193.286l-.119-.132.918-.825.119.132Z" transform="translate(-604.527 -172.361)" fill="#14294c"/>
      <path id="Path_38841" data-name="Path 38841" d="M177.813,655.55l-.124-.128.889-.856.123.128Z" transform="translate(-159.241 -586.607)" fill="#14294c"/>
      <path id="Path_38842" data-name="Path 38842" d="M666.715,184.527l-.123-.128.889-.856.123.128Z" transform="translate(-597.383 -164.487)" fill="#14294c"/>
      <path id="Path_38843" data-name="Path 38843" d="M186.332,663.817l-.128-.123.858-.887.128.123Z" transform="translate(-166.871 -593.991)" fill="#14294c"/>
      <path id="Path_38844" data-name="Path 38844" d="M658.461,176.061l-.128-.123.858-.887.128.123Z" transform="translate(-589.982 -156.876)" fill="#14294c"/>
      <path id="Path_38845" data-name="Path 38845" d="M195.143,671.794l-.132-.119.827-.916.132.119Z" transform="translate(-174.764 -601.118)" fill="#14294c"/>
      <path id="Path_38846" data-name="Path 38846" d="M649.922,167.9l-.132-.119.827-.916.132.119Z" transform="translate(-582.325 -149.539)" fill="#14294c"/>
      <path id="Path_38847" data-name="Path 38847" d="M213.6,686.828l-.14-.109.761-.971.14.109Z" transform="translate(-191.297 -614.55)" fill="#14294c"/>
      <path id="Path_38848" data-name="Path 38848" d="M632.039,152.508l-.14-.109.761-.971.14.109Z" transform="translate(-566.292 -135.706)" fill="#14294c"/>
      <path id="Path_38849" data-name="Path 38849" d="M223.225,693.872l-.144-.1.726-1,.144.1Z" transform="translate(-199.92 -620.844)" fill="#14294c"/>
      <path id="Path_38850" data-name="Path 38850" d="M622.713,145.308l-.144-.1.727-1,.144.1Z" transform="translate(-557.931 -129.234)" fill="#14294c"/>
      <path id="Path_38851" data-name="Path 38851" d="M233.1,700.585l-.147-.1.691-1.022.147.1Z" transform="translate(-208.765 -626.842)" fill="#14294c"/>
      <path id="Path_38852" data-name="Path 38852" d="M613.159,138.444l-.147-.1.691-1.022.147.1Z" transform="translate(-549.366 -123.065)" fill="#14294c"/>
      <path id="Path_38853" data-name="Path 38853" d="M243.208,706.96l-.151-.094.655-1.045.151.094Z" transform="translate(-217.822 -632.539)" fill="#14294c"/>
      <path id="Path_38854" data-name="Path 38854" d="M603.369,131.933l-.151-.094.655-1.045.151.094Z" transform="translate(-540.589 -117.214)" fill="#14294c"/>
      <path id="Path_38855" data-name="Path 38855" d="M264.083,718.666l-.157-.083.58-1.089.157.083Z" transform="translate(-236.524 -643)" fill="#14294c"/>
      <path id="Path_38856" data-name="Path 38856" d="M583.164,119.974l-.157-.083.58-1.089.157.083Z" transform="translate(-522.476 -106.467)" fill="#14294c"/>
      <path id="Path_38857" data-name="Path 38857" d="M274.828,723.987l-.16-.078.542-1.108.16.078Z" transform="translate(-246.151 -647.757)" fill="#14294c"/>
      <path id="Path_38858" data-name="Path 38858" d="M572.767,114.548l-.16-.078.542-1.108.16.078Z" transform="translate(-513.156 -101.592)" fill="#14294c"/>
      <path id="Path_38859" data-name="Path 38859" d="M285.757,728.94l-.162-.072.5-1.126.162.072Z" transform="translate(-255.943 -652.185)" fill="#14294c"/>
      <path id="Path_38860" data-name="Path 38860" d="M562.2,109.5l-.162-.072.5-1.126.162.072Z" transform="translate(-503.684 -97.056)" fill="#14294c"/>
      <path id="Path_38861" data-name="Path 38861" d="M296.858,733.523l-.165-.066.463-1.143.165.066Z" transform="translate(-265.889 -656.281)" fill="#14294c"/>
      <path id="Path_38862" data-name="Path 38862" d="M551.459,104.837l-.165-.066.463-1.142.165.066Z" transform="translate(-494.056 -92.869)" fill="#14294c"/>
      <path id="Path_38863" data-name="Path 38863" d="M319.519,741.545l-.169-.055.382-1.172.169.055Z" transform="translate(-286.193 -663.455)" fill="#14294c"/>
      <path id="Path_38864" data-name="Path 38864" d="M529.544,96.671l-.169-.055.382-1.172.169.055Z" transform="translate(-474.413 -85.534)" fill="#14294c"/>
      <path id="Path_38865" data-name="Path 38865" d="M331.055,744.983l-.171-.049.341-1.185.171.049Z" transform="translate(-296.53 -666.529)" fill="#14294c"/>
      <path id="Path_38866" data-name="Path 38866" d="M518.392,93.187l-.171-.049.341-1.185.171.049Z" transform="translate(-464.417 -82.406)" fill="#14294c"/>
      <path id="Path_38867" data-name="Path 38867" d="M342.707,748.024l-.172-.043.3-1.2.172.043Z" transform="translate(-306.971 -669.25)" fill="#14294c"/>
      <path id="Path_38868" data-name="Path 38868" d="M507.132,90.1l-.172-.043.3-1.2.172.043Z" transform="translate(-454.325 -79.638)" fill="#14294c"/>
      <rect id="Rectangle_74853" data-name="Rectangle 74853" width="1.233" height="0.178" transform="translate(36.784 79.015) rotate(-78.001)" fill="#14294c"/>
      <rect id="Rectangle_74854" data-name="Rectangle 74854" width="1.232" height="0.178" transform="translate(51.455 10.154) rotate(-78)" fill="#14294c"/>
      <rect id="Rectangle_74855" data-name="Rectangle 74855" width="1.233" height="0.178" transform="translate(39.251 79.455) rotate(-82.007)" fill="#14294c"/>
      <rect id="Rectangle_74856" data-name="Rectangle 74856" width="1.233" height="0.178" transform="matrix(0.139, -0.99, 0.99, 0.139, 49.071, 9.741)" fill="#14294c"/>
      <rect id="Rectangle_74857" data-name="Rectangle 74857" width="1.233" height="0.178" transform="matrix(0.104, -0.995, 0.995, 0.104, 40.494, 79.611)" fill="#14294c"/>
      <rect id="Rectangle_74858" data-name="Rectangle 74858" width="1.233" height="0.178" transform="translate(47.87 9.597) rotate(-84.03)" fill="#14294c"/>
      <rect id="Rectangle_74859" data-name="Rectangle 74859" width="1.233" height="0.178" transform="translate(41.742 79.723) rotate(-86.014)" fill="#14294c"/>
      <rect id="Rectangle_74860" data-name="Rectangle 74860" width="1.233" height="0.178" transform="translate(46.665 9.495) rotate(-86.014)" fill="#14294c"/>
      <rect id="Rectangle_74861" data-name="Rectangle 74861" width="1.232" height="0.178" transform="translate(42.994 79.791) rotate(-88.025)" fill="#14294c"/>
      <rect id="Rectangle_74862" data-name="Rectangle 74862" width="1.233" height="0.178" transform="translate(45.456 9.435) rotate(-87.992)" fill="#14294c"/>
      <path id="Path_38869" data-name="Path 38869" d="M92.317,128.566a38.7,38.7,0,1,1,15.094-3.04,38.614,38.614,0,0,1-15.094,3.04m0-76.956a38.285,38.285,0,1,0,14.932,3.007A38.2,38.2,0,0,0,92.317,51.61" transform="translate(-47.982 -45.881)" fill="#14294c"/>
      <path id="Path_38870" data-name="Path 38870" d="M222.805,243.655h-.015c-.224,0-.451,0-.673-.009a.284.284,0,1,1,.016-.567c.217.006.438.009.657.009h.015a.284.284,0,1,1,0,.567m1.359-.04a.284.284,0,0,1-.016-.567c.223-.013.448-.029.67-.048a.284.284,0,1,1,.049.565c-.227.02-.458.036-.686.05h-.017m-3.4-.046h-.025c-.228-.02-.458-.043-.685-.069a.284.284,0,1,1,.065-.563c.221.025.446.048.668.067a.284.284,0,0,1-.024.566m5.423-.159a.284.284,0,0,1-.041-.564c.22-.032.443-.068.663-.106a.284.284,0,1,1,.1.559c-.226.04-.454.076-.68.109l-.041,0m-7.445-.1a.292.292,0,0,1-.049,0c-.226-.039-.453-.082-.676-.128a.284.284,0,1,1,.114-.556c.218.044.44.086.66.125a.284.284,0,0,1-.048.563m9.448-.279a.284.284,0,0,1-.065-.56c.217-.051.437-.107.651-.164a.284.284,0,1,1,.147.548c-.22.059-.444.115-.667.168a.287.287,0,0,1-.066.008m-11.439-.158a.286.286,0,0,1-.074-.01c-.219-.058-.442-.121-.662-.186a.284.284,0,1,1,.162-.544c.215.064.432.125.646.182a.284.284,0,0,1-.073.558m13.4-.4a.284.284,0,0,1-.089-.553c.211-.07.425-.144.634-.22a.284.284,0,1,1,.195.533c-.215.078-.433.154-.65.226a.286.286,0,0,1-.09.014m-15.346-.213a.285.285,0,0,1-.1-.017c-.216-.078-.433-.161-.645-.245a.284.284,0,1,1,.21-.527c.207.082.419.162.63.239a.284.284,0,0,1-.1.55m17.249-.511a.284.284,0,0,1-.113-.544c.2-.088.41-.18.611-.274a.284.284,0,1,1,.241.514c-.205.1-.416.19-.626.281a.284.284,0,0,1-.113.023m-19.137-.269a.284.284,0,0,1-.12-.027c-.207-.1-.416-.2-.621-.3a.284.284,0,1,1,.255-.507c.2.1.4.2.606.293a.284.284,0,0,1-.12.541m20.968-.618a.284.284,0,0,1-.135-.533c.2-.106.392-.215.585-.326a.284.284,0,1,1,.285.491c-.2.114-.4.226-.6.334a.284.284,0,0,1-.135.034m-22.779-.323a.284.284,0,0,1-.142-.038c-.2-.115-.4-.233-.591-.353a.284.284,0,1,1,.3-.483c.189.117.384.232.577.344a.284.284,0,0,1-.142.529m24.526-.72a.284.284,0,0,1-.157-.521c.185-.122.372-.248.555-.376a.284.284,0,1,1,.326.464c-.187.131-.378.261-.568.385a.284.284,0,0,1-.156.047m-26.247-.375a.284.284,0,0,1-.163-.051c-.187-.131-.375-.267-.558-.4a.284.284,0,1,1,.34-.455c.178.133.362.265.545.393a.284.284,0,0,1-.163.516m27.9-.816a.284.284,0,0,1-.177-.506c.175-.138.35-.281.52-.423a.284.284,0,1,1,.366.434c-.174.146-.354.292-.533.433a.285.285,0,0,1-.177.061m-29.516-.423a.284.284,0,0,1-.183-.066c-.175-.147-.351-.3-.521-.449a.284.284,0,0,1,.378-.424c.166.148.337.3.509.438a.284.284,0,0,1-.183.5m31.057-.907a.284.284,0,0,1-.2-.49c.162-.152.324-.309.482-.467a.284.284,0,1,1,.4.4c-.162.161-.328.322-.493.478a.284.284,0,0,1-.195.077m-32.561-.467a.284.284,0,0,1-.2-.083c-.162-.161-.323-.327-.48-.492a.284.284,0,0,1,.413-.39c.153.161.31.323.468.48a.284.284,0,0,1-.2.484m33.982-.991a.284.284,0,0,1-.212-.472c.148-.166.3-.336.44-.507a.284.284,0,1,1,.435.365c-.147.175-.3.349-.451.519a.284.284,0,0,1-.212.095m-35.36-.507a.284.284,0,0,1-.218-.1c-.147-.174-.293-.353-.435-.531a.284.284,0,0,1,.446-.352c.139.174.281.349.424.519a.284.284,0,0,1-.217.466m36.649-1.07a.284.284,0,0,1-.228-.453c.134-.179.266-.362.394-.543a.284.284,0,0,1,.465.326c-.131.186-.267.374-.4.557a.284.284,0,0,1-.228.114m-37.892-.542a.284.284,0,0,1-.233-.121c-.131-.187-.262-.377-.387-.567a.284.284,0,0,1,.475-.312c.122.185.249.371.378.553a.284.284,0,0,1-.232.447m39.039-1.142a.284.284,0,0,1-.242-.433c.118-.189.234-.383.345-.576a.284.284,0,0,1,.492.284c-.115.2-.234.4-.354.59a.284.284,0,0,1-.242.134m-40.136-.57a.284.284,0,0,1-.246-.142c-.114-.2-.227-.4-.335-.6a.284.284,0,0,1,.5-.27c.106.195.216.391.328.583a.284.284,0,0,1-.246.426m41.133-1.207a.284.284,0,0,1-.254-.411c.1-.2.2-.4.294-.6a.284.284,0,0,1,.515.24c-.1.208-.2.416-.3.619a.284.284,0,0,1-.254.156m-42.076-.593a.285.285,0,0,1-.258-.163c-.1-.206-.191-.415-.282-.624a.284.284,0,0,1,.522-.225c.088.2.181.408.275.609a.284.284,0,0,1-.257.4m42.913-1.266a.284.284,0,0,1-.264-.389c.083-.207.163-.418.24-.628a.284.284,0,0,1,.534.194c-.078.215-.161.431-.246.644a.284.284,0,0,1-.264.179m-43.694-.608a.285.285,0,0,1-.267-.186c-.078-.214-.155-.433-.227-.648a.284.284,0,0,1,.539-.179c.07.21.145.423.221.633a.284.284,0,0,1-.267.381m44.364-1.315a.284.284,0,0,1-.273-.365c.064-.212.125-.429.183-.645a.284.284,0,0,1,.549.146c-.059.221-.122.443-.187.661a.284.284,0,0,1-.272.2m-44.979-.624a.284.284,0,0,1-.274-.21c-.059-.22-.116-.444-.169-.666a.284.284,0,0,1,.553-.131c.051.216.107.435.164.649a.284.284,0,0,1-.275.357m45.477-1.348a.28.28,0,0,1-.058-.006.284.284,0,0,1-.221-.335c.045-.218.087-.439.125-.658a.284.284,0,0,1,.56.1c-.039.225-.082.452-.128.675a.284.284,0,0,1-.278.227m-45.919-.637a.284.284,0,0,1-.279-.234c-.04-.223-.077-.451-.11-.678a.284.284,0,0,1,.563-.082c.033.221.069.444.107.661a.284.284,0,0,1-.231.329.29.29,0,0,1-.05,0m46.241-1.371-.033,0a.284.284,0,0,1-.25-.314c.026-.221.048-.445.068-.667a.284.284,0,0,1,.566.049c-.02.227-.043.457-.069.683a.284.284,0,0,1-.282.251m-46.507-.645a.284.284,0,0,1-.283-.259c-.02-.227-.037-.457-.05-.685a.284.284,0,0,1,.568-.033c.013.222.029.447.049.668a.284.284,0,0,1-.258.307H199.5m46.653-1.383h-.008a.284.284,0,0,1-.276-.292c.006-.222.009-.447.009-.67v-.057a.284.284,0,0,1,.569,0v.058c0,.229,0,.46-.01.687a.284.284,0,0,1-.284.276m-46.743-.649a.284.284,0,0,1-.284-.284v-.028c0-.219,0-.44.009-.658a.287.287,0,0,1,.292-.276.284.284,0,0,1,.277.291c-.006.213-.009.429-.009.641v.029a.284.284,0,0,1-.284.284m46.71-1.443a.284.284,0,0,1-.283-.267c-.014-.223-.03-.447-.05-.668a.284.284,0,0,1,.566-.05c.02.226.037.457.051.685a.284.284,0,0,1-.267.3h-.017m-46.624-.589h-.024a.284.284,0,0,1-.259-.307c.019-.226.042-.456.068-.683a.284.284,0,0,1,.565.064c-.025.221-.048.446-.067.667a.284.284,0,0,1-.283.26m46.414-1.434a.284.284,0,0,1-.281-.242c-.033-.22-.069-.442-.108-.661a.284.284,0,0,1,.56-.1c.04.224.077.452.111.678a.284.284,0,0,1-.24.322.29.29,0,0,1-.042,0m-46.153-.583a.279.279,0,0,1-.049,0,.284.284,0,0,1-.231-.328c.039-.224.082-.451.128-.675a.284.284,0,0,1,.557.113c-.045.218-.087.44-.125.658a.284.284,0,0,1-.28.235m45.767-1.414a.284.284,0,0,1-.276-.218c-.051-.215-.107-.434-.165-.649a.284.284,0,0,1,.549-.148c.06.221.117.445.17.665a.284.284,0,0,1-.277.349m-45.331-.573a.284.284,0,0,1-.275-.356c.059-.22.121-.442.187-.661a.284.284,0,0,1,.545.162c-.064.214-.125.431-.182.645a.284.284,0,0,1-.275.211m44.771-1.383a.284.284,0,0,1-.27-.194c-.07-.211-.145-.423-.222-.632a.284.284,0,0,1,.534-.2c.078.214.155.432.228.648a.284.284,0,0,1-.27.373m-44.162-.558a.284.284,0,0,1-.267-.38c.078-.214.16-.431.245-.644a.284.284,0,0,1,.529.209c-.082.208-.163.419-.239.628a.284.284,0,0,1-.267.187m43.433-1.339a.284.284,0,0,1-.261-.171c-.088-.2-.181-.408-.276-.609a.284.284,0,0,1,.515-.241c.1.205.192.415.283.624a.284.284,0,0,1-.261.4m-42.653-.545a.284.284,0,0,1-.257-.4c.1-.208.2-.416.3-.619a.284.284,0,0,1,.508.254c-.1.2-.2.4-.293.6a.285.285,0,0,1-.258.164m41.761-1.28a.284.284,0,0,1-.25-.148c-.106-.2-.217-.391-.328-.583a.284.284,0,0,1,.492-.285c.114.2.227.4.336.6a.284.284,0,0,1-.25.419m-40.819-.527a.284.284,0,0,1-.246-.425c.115-.2.233-.4.353-.591a.284.284,0,0,1,.484.3c-.117.189-.233.383-.345.576a.285.285,0,0,1-.247.142m39.77-1.214a.284.284,0,0,1-.237-.127c-.123-.186-.25-.371-.378-.553a.284.284,0,0,1,.465-.327c.131.186.261.376.387.566a.284.284,0,0,1-.237.44m-38.674-.5a.284.284,0,0,1-.233-.446c.13-.186.266-.373.4-.557a.284.284,0,0,1,.456.338c-.134.179-.266.362-.393.544a.284.284,0,0,1-.233.121m37.477-1.141a.284.284,0,0,1-.223-.107c-.138-.174-.281-.348-.425-.518a.284.284,0,0,1,.435-.366c.147.174.294.353.435.531a.284.284,0,0,1-.222.46m-36.236-.474a.284.284,0,0,1-.218-.466c.147-.175.3-.35.45-.52a.284.284,0,0,1,.425.377c-.148.166-.3.337-.439.507a.284.284,0,0,1-.218.1m34.9-1.061a.284.284,0,0,1-.206-.089c-.153-.162-.311-.323-.469-.48a.284.284,0,1,1,.4-.4c.161.16.323.326.48.491a.284.284,0,0,1-.206.479m-33.523-.44a.284.284,0,0,1-.2-.484c.161-.161.327-.322.493-.479a.284.284,0,1,1,.391.412c-.162.153-.324.31-.481.467a.284.284,0,0,1-.2.083m32.058-.975a.283.283,0,0,1-.189-.072c-.167-.148-.338-.3-.509-.438a.284.284,0,1,1,.365-.435c.175.146.35.3.521.448a.284.284,0,0,1-.189.5m-30.557-.4a.284.284,0,0,1-.183-.5c.174-.146.353-.292.532-.434a.284.284,0,1,1,.354.444c-.175.139-.35.281-.52.424a.283.283,0,0,1-.183.067m28.974-.883a.284.284,0,0,1-.169-.056c-.179-.132-.362-.264-.545-.392a.284.284,0,1,1,.326-.465c.188.131.376.266.559.4a.284.284,0,0,1-.17.511m-27.359-.358a.283.283,0,0,1-.164-.516c.186-.131.377-.261.568-.386a.284.284,0,1,1,.314.473c-.186.122-.372.249-.554.377a.283.283,0,0,1-.163.052m25.67-.784a.284.284,0,0,1-.149-.042c-.191-.117-.385-.233-.578-.343a.284.284,0,1,1,.284-.492c.2.113.4.232.592.352a.284.284,0,0,1-.149.525m-23.955-.311a.284.284,0,0,1-.143-.529c.2-.114.4-.227.6-.335a.284.284,0,1,1,.271.5c-.2.106-.392.216-.584.327a.285.285,0,0,1-.142.038m22.171-.68a.283.283,0,0,1-.127-.03c-.2-.1-.4-.2-.606-.292a.284.284,0,1,1,.24-.514c.208.1.417.2.621.3a.284.284,0,0,1-.128.537m-20.368-.262a.284.284,0,0,1-.121-.541c.206-.1.417-.191.625-.282a.284.284,0,1,1,.226.52c-.2.088-.409.18-.61.275a.285.285,0,0,1-.121.027m18.5-.57a.284.284,0,0,1-.1-.02c-.208-.082-.419-.162-.63-.238a.284.284,0,1,1,.193-.534c.216.078.433.16.646.244a.284.284,0,0,1-.1.547m-16.626-.211a.284.284,0,0,1-.1-.55c.214-.078.432-.154.65-.227a.284.284,0,1,1,.18.538c-.212.07-.425.145-.634.221a.282.282,0,0,1-.1.017m14.7-.454a.286.286,0,0,1-.081-.012c-.214-.063-.431-.124-.646-.181a.284.284,0,1,1,.146-.548c.221.058.444.121.663.186a.284.284,0,0,1-.081.556m-12.753-.161a.284.284,0,0,1-.074-.558c.221-.059.445-.116.667-.169a.284.284,0,1,1,.132.552c-.216.051-.435.107-.651.165a.285.285,0,0,1-.074.01m10.776-.332a.283.283,0,0,1-.057-.006c-.218-.044-.44-.086-.66-.124a.284.284,0,1,1,.1-.559c.225.039.453.081.676.127a.284.284,0,0,1-.056.562m-8.786-.11a.284.284,0,0,1-.049-.563c.224-.04.453-.077.679-.11a.284.284,0,1,1,.083.561c-.221.033-.444.069-.663.107a.281.281,0,0,1-.05,0m6.772-.208-.032,0c-.222-.025-.447-.047-.668-.066a.284.284,0,1,1,.048-.565c.227.019.457.042.685.068a.284.284,0,0,1-.032.565m-4.751-.059a.284.284,0,0,1-.025-.566c.228-.02.459-.037.686-.05a.284.284,0,1,1,.034.566c-.222.013-.447.03-.67.049h-.025m2.717-.083h-.008c-.209-.006-.42-.008-.628-.008h-.044a.284.284,0,1,1,0-.567h.046c.213,0,.429,0,.643.009a.284.284,0,0,1-.007.567" transform="translate(-178.455 -176.049)" fill="#14294c"/>
      <path id="Path_38871" data-name="Path 38871" d="M813.74,404.329h-1.508v1.4h1.681v.419h-2.182v-3.871h2.1v.419h-1.594v1.223h1.508Z" transform="translate(-727.453 -360.507)" fill="#14294c"/>
      <path id="Path_38872" data-name="Path 38872" d="M813.12,405.353h-2.389v-4.078h2.3v.627H811.44v1.016h1.508v.621H811.44v1.188h1.681Zm-2.182-.207h1.974v-.212h-1.681v-1.6h1.508v-.206h-1.508v-1.43h1.595v-.212h-1.888Z" transform="translate(-726.557 -359.613)" fill="#14294c"/>
      <path id="Path_38873" data-name="Path 38873" d="M414.333,4.868V1h.547l1.243,1.958a10.942,10.942,0,0,1,.7,1.258l.012-.006c-.046-.517-.057-.988-.057-1.591V1h.472V4.868h-.507L415.508,2.9a12.24,12.24,0,0,1-.725-1.292l-.017.006c.029.488.04.953.04,1.6V4.868Z" transform="translate(-371.315 -0.893)" fill="#14294c"/>
      <path id="Path_38874" data-name="Path 38874" d="M416.454,4.078h-.668l-1.262-2.013c-.213-.34-.387-.634-.529-.9.013.342.019.7.019,1.156V4.078h-.68V0h.708l1.274,2.006c.182.287.342.56.482.826-.019-.36-.023-.716-.023-1.11V0h.68Zm-.553-.207h.345V.207h-.264V1.723c0,.565.01,1.05.057,1.582l.006.071-.171.084-.045-.1a10.9,10.9,0,0,0-.69-1.246L413.928.207h-.386V3.871h.264V2.32c0-.646-.012-1.107-.04-1.59l0-.079.18-.061.039.084a11.96,11.96,0,0,0,.719,1.281Z" transform="translate(-370.42)" fill="#14294c"/>
      <path id="Path_38875" data-name="Path 38875" d="M417.148,813.884a1.779,1.779,0,0,0,.9.253c.512,0,.812-.27.812-.661,0-.362-.207-.568-.731-.77-.633-.224-1.025-.551-1.025-1.1a1.116,1.116,0,0,1,1.255-1.051,1.764,1.764,0,0,1,.858.19l-.138.407a1.549,1.549,0,0,0-.737-.184c-.53,0-.731.316-.731.58,0,.362.236.54.771.747.656.253.99.568.99,1.137,0,.6-.443,1.114-1.359,1.114a2.009,2.009,0,0,1-.99-.247Z" transform="translate(-373.724 -726.403)" fill="#14294c"/>
      <path id="Path_38876" data-name="Path 38876" d="M416.963,813.76a2.1,2.1,0,0,1-1.048-.264l-.064-.043.188-.622.115.071a1.681,1.681,0,0,0,.844.238c.437,0,.708-.214.708-.557,0-.265-.109-.459-.665-.673-.733-.259-1.091-.65-1.091-1.193a1.214,1.214,0,0,1,1.359-1.154,1.843,1.843,0,0,1,.909.2l.075.042-.205.605-.108-.059a1.438,1.438,0,0,0-.687-.171c-.463,0-.627.257-.627.476,0,.286.171.444.705.65.741.285,1.057.654,1.057,1.234,0,.562-.383,1.218-1.462,1.218m-.867-.4a2.036,2.036,0,0,0,.867.191c.762,0,1.255-.4,1.255-1.01,0-.493-.259-.785-.924-1.04-.531-.205-.838-.409-.838-.844,0-.329.261-.684.835-.684a1.66,1.66,0,0,1,.676.142l.071-.211a1.753,1.753,0,0,0-.731-.138c-.678,0-1.151.39-1.151.947,0,.451.3.769.956,1,.481.185.8.4.8.867s-.359.764-.916.764a1.881,1.881,0,0,1-.836-.2Z" transform="translate(-372.675 -725.509)" fill="#14294c"/>
      <path id="Path_38877" data-name="Path 38877" d="M1.863,412.782l.368,1.413c.081.31.156.6.207.884h.017c.063-.281.155-.58.248-.879l.455-1.419h.426l.432,1.39c.1.333.184.626.248.907h.017a8.339,8.339,0,0,1,.213-.9l.4-1.4h.5l-.9,2.78H4.033l-.426-1.327a9.314,9.314,0,0,1-.248-.913H3.348a8.209,8.209,0,0,1-.253.919l-.449,1.321h-.46l-.841-2.78Z" transform="translate(-1.205 -369.925)" fill="#14294c"/>
      <path id="Path_38878" data-name="Path 38878" d="M3.364,414.771H2.752l-.449-1.4c-.057-.182-.108-.351-.154-.523-.051.19-.106.365-.16.529l-.473,1.392H.9L0,411.784H.738l.389,1.49c.044.17.087.333.125.493.047-.164.1-.329.148-.492l.478-1.492h.578l.454,1.463c.057.182.105.348.148.505.04-.169.086-.336.131-.5l.419-1.471h.722Zm-.46-.207h.309l.831-2.573h-.28l-.376,1.32a8.272,8.272,0,0,0-.21.89l-.014.087H2.975l-.018-.081c-.061-.273-.139-.559-.245-.9L2.3,411.991H2.029L1.6,413.338c-.09.291-.183.592-.245.87l-.018.081H1.147l-.015-.085c-.051-.281-.125-.568-.2-.871l-.35-1.341H.28l.778,2.573h.309l.425-1.25a8.189,8.189,0,0,0,.25-.907l.017-.083h.18l.017.082a9.18,9.18,0,0,0,.245.9Z" transform="translate(0 -369.031)" fill="#14294c"/>
      <path id="Path_38879" data-name="Path 38879" d="M720.753,100.614l1.526-1.516.252.253-.2,1.341a5.9,5.9,0,0,1-.175.814l.007,0a8.1,8.1,0,0,1,.6-.65l.639-.634.217.218-1.526,1.516-.233-.234.207-1.338a6.581,6.581,0,0,1,.175-.841l-.01-.006c-.179.2-.357.392-.611.644l-.652.648Z" transform="translate(-645.921 -88.809)" fill="#14294c"/>
      <path id="Path_38880" data-name="Path 38880" d="M739.2,117.674l-.695-.7-.55.547.774.776-.165.164-1.005-1.007,1.526-1.516.966.968-.165.164-.735-.736-.482.479.695.7Z" transform="translate(-660.982 -103.903)" fill="#14294c"/>
      <path id="Path_38881" data-name="Path 38881" d="M100.256,113.6l-1.519-1.523.253-.251,1.344.2a5.9,5.9,0,0,1,.816.175l0-.007a8.137,8.137,0,0,1-.651-.6l-.636-.637.218-.217,1.519,1.523-.234.233-1.341-.206a6.655,6.655,0,0,1-.843-.175l-.006.01c.2.179.393.357.645.61l.649.651Z" transform="translate(-88.486 -99.241)" fill="#14294c"/>
      <path id="Path_38882" data-name="Path 38882" d="M116.031,90.694l-1.975-1.07.245-.243.982.559c.243.137.48.279.658.394l.005-.005a7.546,7.546,0,0,1-.381-.674l-.527-1.006.242-.241.99.556a7.344,7.344,0,0,1,.646.4l.005-.005c-.13-.2-.248-.424-.381-.669l-.529-1,.237-.236,1.011,2.028-.242.241L116,89.147a5.646,5.646,0,0,1-.613-.381l-.005.005a5.857,5.857,0,0,1,.357.635l.536,1.047Z" transform="translate(-102.214 -78.367)" fill="#14294c"/>
      <path id="Path_38883" data-name="Path 38883" d="M129.582,720.673a1.31,1.31,0,0,0-.314-.514c-.236-.237-.48-.269-.634-.116s-.129.318.033.639c.2.38.255.689.04.9-.238.236-.645.18-.993-.168a1.316,1.316,0,0,1-.321-.47l.224-.1a1.146,1.146,0,0,0,.267.412c.244.245.462.214.566.11.143-.142.1-.32-.061-.649-.2-.4-.232-.68-.008-.9s.644-.232,1.065.191a1.489,1.489,0,0,1,.359.554Z" transform="translate(-114.166 -644.947)" fill="#14294c"/>
      <path id="Path_38884" data-name="Path 38884" d="M106.975,700.745l-1.073,1.97-.244-.245.56-.98c.137-.242.28-.479.4-.657l-.005-.005a7.563,7.563,0,0,1-.676.38l-1.009.525-.241-.242.557-.987a7.3,7.3,0,0,1,.4-.644l-.005-.005c-.2.129-.425.247-.671.38l-1.006.528-.236-.237,2.033-1.008.241.242-.569,1.015a5.628,5.628,0,0,1-.381.612l.005.005a5.89,5.89,0,0,1,.636-.357l1.049-.534Z" transform="translate(-92.95 -626.893)" fill="#14294c"/>
      <path id="Path_38885" data-name="Path 38885" d="M697.166,139.494l-2.421,2.415.3.295,2.421-2.415Z" transform="translate(-622.613 -125.011)" fill="#14294c"/>
      <path id="Path_38886" data-name="Path 38886" d="M148.274,687.1l-2.421,2.415.3.295,2.421-2.415Z" transform="translate(-130.71 -615.758)" fill="#14294c"/>
      <path id="Path_38887" data-name="Path 38887" d="M689.973,682.041l-.3.295,2.421,2.416.3-.295Z" transform="translate(-618.072 -611.228)" fill="#14294c"/>
      <path id="Path_38888" data-name="Path 38888" d="M140.789,134.732l2.421,2.415.3-.295-2.421-2.415Z" transform="translate(-126.172 -120.48)" fill="#14294c"/>
      <path id="Path_38889" data-name="Path 38889" d="M734.551,702.182a1.314,1.314,0,0,0-.515.313c-.237.235-.27.479-.116.633s.319.128.64-.033c.381-.2.691-.254.905-.039.237.237.181.644-.168.99a1.32,1.32,0,0,1-.471.32l-.1-.224a1.153,1.153,0,0,0,.413-.267c.245-.243.214-.46.111-.564-.142-.142-.321-.1-.65.061-.4.2-.681.232-.9.008s-.232-.642.192-1.063a1.493,1.493,0,0,1,.555-.358Z" transform="translate(-657.382 -629.078)" fill="#14294c"/>
      <path id="Path_38890" data-name="Path 38890" d="M719.069,716.307l.7-.693-.548-.549-.778.773-.165-.165,1.01-1,1.519,1.523-.97.963-.165-.165.738-.733-.48-.481-.7.693Z" transform="translate(-643.702 -640.47)" fill="#14294c"/>
      <path id="Path_38891" data-name="Path 38891" d="M401.272,141.252a3.906,3.906,0,0,0-.1-.886l-3.81-31.548h0l-3.81,31.548a3.9,3.9,0,0,0-.1.886c0,.07,0,.14.006.209s-.006.139-.006.209a3.894,3.894,0,0,0,.1.886l3.81,31.548h0l3.81-31.548a3.908,3.908,0,0,0,.1-.886c0-.07,0-.14-.006-.209s.006-.139.006-.209m-3.912,2.069a1.86,1.86,0,1,1,1.887-1.86,1.885,1.885,0,0,1-1.887,1.86" transform="translate(-352.598 -97.52)" fill="#1a1a1a"/>
      <path id="Path_38892" data-name="Path 38892" d="M140.462,394.537a3.93,3.93,0,0,0,.888-.1l31.623-3.8h0l-31.622-3.8a3.935,3.935,0,0,0-.888-.1c-.07,0-.14,0-.21.006s-.139-.006-.21-.006a3.933,3.933,0,0,0-.888.1l-31.623,3.8h0l31.622,3.8a3.934,3.934,0,0,0,.888.1c.07,0,.14,0,.21-.006s.139.006.21.006m-2.074-3.9a1.864,1.864,0,1,1,1.864,1.882,1.885,1.885,0,0,1-1.864-1.882" transform="translate(-96.368 -346.579)" fill="#1a1a1a"/>
      <path id="Path_38893" data-name="Path 38893" d="M143.722,420.815a1.886,1.886,0,0,1-1.888-1.883H110.978l31.622,3.8a3.911,3.911,0,0,0,4.8-3.8h-1.791a1.886,1.886,0,0,1-1.888,1.883" transform="translate(-99.456 -375.437)" fill="#2e4160"/>
      <path id="Path_38894" data-name="Path 38894" d="M143.485,381.341a3.932,3.932,0,0,0-.888.1l-31.623,3.8h30.856a1.888,1.888,0,0,1,3.776,0H147.4a3.908,3.908,0,0,0-3.912-3.9" transform="translate(-99.453 -341.748)" fill="#14294c"/>
      <path id="Path_38895" data-name="Path 38895" d="M393.9,383.361a1.886,1.886,0,0,1,1.888,1.883h30.856l-31.622-3.8a3.912,3.912,0,0,0-4.8,3.8h1.791a1.886,1.886,0,0,1,1.888-1.883" transform="translate(-349.706 -341.748)" fill="#14294c"/>
      <path id="Path_38896" data-name="Path 38896" d="M394.132,422.834a3.929,3.929,0,0,0,.888-.1l31.623-3.8H395.787a1.888,1.888,0,0,1-3.776,0H390.22a3.908,3.908,0,0,0,3.912,3.9" transform="translate(-349.706 -375.436)" fill="#2e4160"/>
      <path id="Path_38897" data-name="Path 38897" d="M427.61,387.883a1.886,1.886,0,0,1-1.888,1.883V420.55L429.532,389a3.9,3.9,0,0,0-3.81-4.789V386a1.886,1.886,0,0,1,1.888,1.884" transform="translate(-381.522 -344.322)" fill="#3a6477"/>
      <path id="Path_38898" data-name="Path 38898" d="M388.042,388.117a3.905,3.905,0,0,0,.1.886l3.81,31.548h0V389.768a1.883,1.883,0,1,1,0-3.767v-1.787h0a3.907,3.907,0,0,0-3.912,3.9" transform="translate(-347.754 -344.323)" fill="#4c819e"/>
      <path id="Path_38899" data-name="Path 38899" d="M390.065,138.295a1.886,1.886,0,0,1,1.888-1.884V105.628l-3.81,31.548a3.9,3.9,0,0,0,3.81,4.789v-1.787a1.886,1.886,0,0,1-1.888-1.883" transform="translate(-347.753 -94.661)" fill="#892121"/>
      <path id="Path_38900" data-name="Path 38900" d="M429.634,138.058a3.9,3.9,0,0,0-.1-.886l-3.81-31.548h0v30.783a1.883,1.883,0,1,1,0,3.767v1.787a3.908,3.908,0,0,0,3.912-3.9" transform="translate(-381.522 -94.658)" fill="#682121"/>
      <path id="Path_38901" data-name="Path 38901" d="M409,400.6a2.191,2.191,0,1,1-2.191-2.186A2.189,2.189,0,0,1,409,400.6" transform="translate(-362.607 -357.05)" fill="#cfd1d2"/>
      <path id="Path_38902" data-name="Path 38902" d="M409.942,401.665a2.068,2.068,0,1,1-2.068-2.063,2.065,2.065,0,0,1,2.068,2.063" transform="translate(-363.674 -358.113)" fill="#919395"/>
      <path id="Path_38903" data-name="Path 38903" d="M416.8,409.407a1.169,1.169,0,1,1-1.169-1.166,1.167,1.167,0,0,1,1.169,1.166" transform="translate(-371.434 -365.856)" fill="#cfd1d2"/>
      <path id="Path_38904" data-name="Path 38904" d="M417.973,410.728a1.015,1.015,0,1,1-1.015-1.013,1.014,1.014,0,0,1,1.015,1.013" transform="translate(-372.757 -367.176)" fill="#a5a6a9"/>
      <path id="Path_38905" data-name="Path 38905" d="M419.2,412.118a.854.854,0,1,1-.854-.852.853.853,0,0,1,.854.852" transform="translate(-374.149 -368.566)" fill="#1a1a1a"/>
      <path id="Path_38906" data-name="Path 38906" d="M421.144,414.305a.6.6,0,1,1-.6-.6.6.6,0,0,1,.6.6" transform="translate(-376.343 -370.754)" fill="#14294c"/>
    </g>
  </g>
</svg>
