<svg xmlns="http://www.w3.org/2000/svg" width="24.225" height="22.474" viewBox="0 0 24.225 22.474">
  <path id="Path_4649" data-name="Path 4649" d="M23.061,66.668l-9.522-5.935a2.7,2.7,0,0,0-2.853,0L1.164,66.668A2.442,2.442,0,0,0,0,68.738v11.6A2.492,2.492,0,0,0,2.523,82.8H21.7a2.492,2.492,0,0,0,2.523-2.459v-11.6a2.442,2.442,0,0,0-1.164-2.07M9.01,76.468l-5.9,4.589a.819.819,0,1,1-1.007-1.293l5.9-4.589A.819.819,0,1,1,9.01,76.468m2.323-1.926L3.862,69.253a1.024,1.024,0,0,1,.62-1.86H19.743a1.024,1.024,0,0,1,.622,1.86l-7.473,5.289a1.345,1.345,0,0,1-1.559,0m10.93,6.371a.819.819,0,0,1-.647.316.809.809,0,0,1-.5-.172l-5.9-4.589a.819.819,0,1,1,1.007-1.293l5.9,4.589a.818.818,0,0,1,.144,1.149" transform="translate(0 -60.325)" fill="#0d676f"/>
</svg>
