<svg xmlns="http://www.w3.org/2000/svg" width="20.712" height="20.712" viewBox="0 0 20.712 20.712">
  <path id="Path_5874" data-name="Path 5874" d="M66.538,9.987c2.765,0,3.093.01,4.184.06a5.73,5.73,0,0,1,1.922.357,3.421,3.421,0,0,1,1.965,1.965,5.716,5.716,0,0,1,.358,1.923c.05,1.092.06,1.42.06,4.184s-.01,3.093-.06,4.184a5.73,5.73,0,0,1-.357,1.922,3.425,3.425,0,0,1-1.966,1.966,5.73,5.73,0,0,1-1.922.357c-1.091.05-1.419.06-4.184.06s-3.093-.01-4.184-.06a5.73,5.73,0,0,1-1.922-.357,3.416,3.416,0,0,1-1.964-1.965,5.709,5.709,0,0,1-.357-1.922c-.05-1.092-.06-1.42-.06-4.184s.01-3.093.06-4.184a5.715,5.715,0,0,1,.357-1.923,3.418,3.418,0,0,1,1.964-1.964,5.7,5.7,0,0,1,1.922-.357c1.092-.05,1.42-.06,4.184-.06m0-1.866c-2.812,0-3.163.01-4.27.061a7.572,7.572,0,0,0-2.512.481,5.293,5.293,0,0,0-3.03,3.029,7.6,7.6,0,0,0-.48,2.513c-.051,1.106-.063,1.457-.063,4.269s.012,3.165.063,4.27a7.6,7.6,0,0,0,.481,2.513,5.295,5.295,0,0,0,3.029,3.029,7.584,7.584,0,0,0,2.514.482c1.1.051,1.457.063,4.27.063s3.165-.012,4.269-.063a7.584,7.584,0,0,0,2.514-.482,5.293,5.293,0,0,0,3.028-3.028,7.6,7.6,0,0,0,.482-2.514c.05-1.1.062-1.457.062-4.269s-.013-3.164-.067-4.27a7.6,7.6,0,0,0-.481-2.514,5.3,5.3,0,0,0-3.026-3.028,7.572,7.572,0,0,0-2.513-.481c-1.1-.051-1.458-.063-4.27-.063" transform="translate(-56.183 -8.121)" fill="#fff"/>
  <path id="Path_5875" data-name="Path 5875" d="M66.538,13.16a5.318,5.318,0,1,0,5.317,5.319v0a5.317,5.317,0,0,0-5.317-5.316m0,8.769a3.452,3.452,0,1,1,3.452-3.453,3.451,3.451,0,0,1-3.452,3.453" transform="translate(-56.183 -8.121)" fill="#fff"/>
  <path id="Path_5876" data-name="Path 5876" d="M73.309,12.949a1.243,1.243,0,1,1-1.243-1.243,1.243,1.243,0,0,1,1.243,1.243Z" transform="translate(-56.183 -8.121)" fill="#fff"/>
</svg>
