<svg xmlns="http://www.w3.org/2000/svg" width="21" height="20.01" viewBox="0 0 21 20.01">
  <path id="Path_5871" data-name="Path 5871" d="M29,16.521C29,11.822,24.29,8,18.5,8a13.858,13.858,0,0,0-2.157.181C11.739,8.844,8,12.334,8,16.521c0,4.212,3.735,7.74,8.781,8.407.342.074.807.226.925.518a2.157,2.157,0,0,1,.034.949s-.123.741-.15.9c-.046.265-.211,1.038.909.566a33.884,33.884,0,0,0,8.25-6.1A7.581,7.581,0,0,0,29,16.521M14.8,19.029a.2.2,0,0,1-.2.2H11.649a.195.195,0,0,1-.2-.2V14.455a.2.2,0,0,1,.2-.2h.737a.2.2,0,0,1,.2.2v3.633h2a.2.2,0,0,1,.2.2Zm1.776,0a.2.2,0,0,1-.2.2H15.63a.2.2,0,0,1-.2-.2V14.455a.2.2,0,0,1,.2-.2h.737a.2.2,0,0,1,.2.2Zm5.069,0a.2.2,0,0,1-.2.2H20.7a.188.188,0,0,1-.053-.007H20.6l-.013-.008a.19.19,0,0,1-.052-.05l-2.1-2.835v2.7a.2.2,0,0,1-.2.2h-.744s-.2-.09-.2-.2V14.455a.2.2,0,0,1,.2-.2h.83l.011.006h.006l.011.007h0l.011.009.012.013.016.021,2.1,2.832V14.455a.2.2,0,0,1,.2-.2h.736a.2.2,0,0,1,.2.2Zm4.067-3.838a.2.2,0,0,1-.2.2h-2v.773h2a.2.2,0,0,1,.2.2v.746a.2.2,0,0,1-.2.2h-2v.773h2a.2.2,0,0,1,.2.2v.736a.2.2,0,0,1-.2.2H22.561a.195.195,0,0,1-.2-.2V14.455a.2.2,0,0,1,.057-.141.2.2,0,0,1,.142-.058H25.5a.2.2,0,0,1,.2.2Z" transform="translate(-8 -8)" fill="#fff"/>
</svg>
