<svg xmlns="http://www.w3.org/2000/svg" xmlns:xlink="http://www.w3.org/1999/xlink" width="74.144" height="93" viewBox="0 0 74.144 93">
  <defs>
    <clipPath id="clip-path">
      <rect id="Rectangle_458" data-name="Rectangle 458" width="74.144" height="93" fill="#707070"/>
    </clipPath>
  </defs>
  <g id="Group_1002" data-name="Group 1002" clip-path="url(#clip-path)">
    <path id="Path_4188" data-name="Path 4188" d="M52.923,63.331h0A4.334,4.334,0,0,1,48.589,59V39.345a4.334,4.334,0,1,1,8.668,0V59a4.334,4.334,0,0,1-4.334,4.334" transform="translate(-33.731 -24.305)" fill="#707070"/>
    <path id="Path_4189" data-name="Path 4189" d="M.867,123.438h0A.867.867,0,0,1,0,122.571V78.8a.867.867,0,0,1,1.734,0v43.776a.867.867,0,0,1-.867.867" transform="translate(0 -54.099)" fill="#707070"/>
    <path id="Path_4190" data-name="Path 4190" d="M237.666,123.438h0a.867.867,0,0,1-.867-.867V78.8a.867.867,0,0,1,1.734,0v43.776a.867.867,0,0,1-.867.867" transform="translate(-164.388 -54.099)" fill="#707070"/>
    <path id="Path_4191" data-name="Path 4191" d="M60.794,160.93h0a.867.867,0,0,1-.867-.867V139.785a.867.867,0,0,1,1.734,0v20.279a.867.867,0,0,1-.867.867" transform="translate(-41.602 -96.438)" fill="#707070"/>
    <path id="Path_4192" data-name="Path 4192" d="M178.253,114.49h0a.867.867,0,0,1-.867-.867V93.345a.867.867,0,1,1,1.734,0v20.278a.867.867,0,0,1-.867.867" transform="translate(-123.143 -64.199)" fill="#707070"/>
    <path id="Path_4193" data-name="Path 4193" d="M119.524,200.536h0a.867.867,0,0,1-.867-.867v-9.815a.867.867,0,0,1,1.734,0v9.815a.867.867,0,0,1-.867.867" transform="translate(-82.373 -131.197)" fill="#707070"/>
    <path id="Path_4194" data-name="Path 4194" d="M119.524,88.26h0a.867.867,0,0,1-.867-.867V77.578a.867.867,0,0,1,1.734,0v9.815a.867.867,0,0,1-.867.867" transform="translate(-82.373 -53.254)" fill="#707070"/>
    <path id="Path_4195" data-name="Path 4195" d="M52.923,236.089h0a4.334,4.334,0,0,1-4.334-4.334v-5.492a4.334,4.334,0,1,1,8.668,0v5.492a4.334,4.334,0,0,1-4.334,4.334" transform="translate(-33.731 -154.065)" fill="#707070"/>
    <path id="Path_4196" data-name="Path 4196" d="M170.382,175.623h0a4.334,4.334,0,0,1,4.334,4.334v19.652a4.334,4.334,0,1,1-8.668,0V179.957a4.334,4.334,0,0,1,4.334-4.334" transform="translate(-115.272 -121.919)" fill="#707070"/>
    <path id="Path_4197" data-name="Path 4197" d="M170.382,35.012h0a4.334,4.334,0,0,1,4.334,4.334v5.492a4.334,4.334,0,0,1-8.668,0V39.346a4.334,4.334,0,0,1,4.334-4.334" transform="translate(-115.272 -24.306)" fill="#707070"/>
    <path id="Path_4198" data-name="Path 4198" d="M111.653,20.474h0a4.334,4.334,0,0,1-4.334-4.334V4.334a4.334,4.334,0,1,1,8.668,0V16.14a4.334,4.334,0,0,1-4.334,4.334" transform="translate(-74.502)" fill="#707070"/>
    <path id="Path_4199" data-name="Path 4199" d="M111.653,257.65h0a4.334,4.334,0,0,1-4.334-4.334V241.51a4.334,4.334,0,1,1,8.668,0v11.806a4.334,4.334,0,0,1-4.334,4.334" transform="translate(-74.502 -164.65)" fill="#707070"/>
    <path id="Path_4200" data-name="Path 4200" d="M111.653,140.366h0a4.334,4.334,0,0,1-4.334-4.334v-7.463a4.334,4.334,0,1,1,8.668,0v7.463a4.334,4.334,0,0,1-4.334,4.334" transform="translate(-74.502 -86.245)" fill="#707070"/>
  </g>
</svg>
