<svg id="Search" xmlns="http://www.w3.org/2000/svg" xmlns:xlink="http://www.w3.org/1999/xlink" width="46" height="36" viewBox="0 0 46 36">
  <defs>
    <clipPath id="clip-path">
      <rect id="Rectangle_6713" data-name="Rectangle 6713" width="22.104" height="23.283" fill="#707070"/>
    </clipPath>
  </defs>
  <g id="Group_1620" data-name="Group 1620" transform="translate(12 5.999)">
    <g id="Group_1619" data-name="Group 1619" transform="translate(0 0)" clip-path="url(#clip-path)">
      <path id="Path_5835" data-name="Path 5835" d="M18.116,15.424a8.321,8.321,0,0,0,5.143-1.754A7.472,7.472,0,0,0,24.368,2.81,8.4,8.4,0,0,0,12.959,1.754,7.473,7.473,0,0,0,11.85,12.615a8.266,8.266,0,0,0,6.266,2.809M18.1.841a7.363,7.363,0,0,1,5.583,2.5A6.657,6.657,0,0,1,22.7,13.02a7.485,7.485,0,0,1-10.165-.94A6.658,6.658,0,0,1,13.521,2.4,7.415,7.415,0,0,1,18.1.841M12.191,12.347h0Z" transform="translate(-10.007 0)" fill="#707070"/>
      <path id="Path_5836" data-name="Path 5836" d="M19.753,14.935A5.9,5.9,0,0,0,23.4,13.691,5.362,5.362,0,0,0,25.469,10a5.256,5.256,0,0,0-1.282-4,5.956,5.956,0,0,0-8.09-.749,5.36,5.36,0,0,0-2.069,3.7,5.256,5.256,0,0,0,1.283,4,5.859,5.859,0,0,0,4.443,1.993m-.009-10.1A4.958,4.958,0,0,1,23.5,6.525a4.45,4.45,0,0,1,1.085,3.389,4.539,4.539,0,0,1-1.751,3.127,5.041,5.041,0,0,1-6.846-.634,4.45,4.45,0,0,1-1.085-3.389,4.537,4.537,0,0,1,1.751-3.127,5,5,0,0,1,3.086-1.053" transform="translate(-11.646 -1.755)" fill="#707070"/>
      <path id="Path_5837" data-name="Path 5837" d="M20.95,10.828a.468.468,0,0,0,.114-.014.419.419,0,0,0,.314-.515,3.316,3.316,0,0,0-.7-1.288A3.637,3.637,0,0,0,17.919,7.77a.421.421,0,1,0,0,.842A2.739,2.739,0,0,1,20,9.547a2.511,2.511,0,0,1,.524.968.439.439,0,0,0,.427.313" transform="translate(-9.592 -3.41)" fill="#707070"/>
      <path id="Path_5838" data-name="Path 5838" d="M17.841,16a.447.447,0,0,0,.372-.193,3.3,3.3,0,0,0,.5-1.189.422.422,0,0,0-.348-.494.446.446,0,0,0-.519.332,2.489,2.489,0,0,1-.378.9.409.409,0,0,0,.132.582.458.458,0,0,0,.239.067" transform="translate(-6.877 -6.195)" fill="#707070"/>
      <path id="Path_5839" data-name="Path 5839" d="M5.9,33.869a.454.454,0,0,0,.285-.1l3.176-2.545a.407.407,0,0,0,.06-.586L4.037,24.277a.458.458,0,0,0-.626-.061L.161,26.762a.406.406,0,0,0-.061.591l5.463,6.361a.449.449,0,0,0,.3.153l.041,0m2.56-3.023-2.5,2-4.9-5.706,2.565-2.009Z" transform="translate(12.581 -10.586)" fill="#707070"/>
      <path id="Path_5840" data-name="Path 5840" d="M7.052,30.565a.458.458,0,0,0,.279-.095l3.263-2.533a.406.406,0,0,0,.063-.591.457.457,0,0,0-.622-.061L6.772,29.818a.408.408,0,0,0-.063.592.45.45,0,0,0,.343.155" transform="translate(7.449 -11.933)" fill="#707070"/>
      <path id="Path_5841" data-name="Path 5841" d="M12.4,24.63a.455.455,0,0,0,.281-.1.407.407,0,0,0,.061-.593l-1.553-1.8a.458.458,0,0,0-.623-.057.406.406,0,0,0-.06.592l1.552,1.8a.454.454,0,0,0,.342.153" transform="translate(3.12 -9.652)" fill="#707070"/>
      <path id="Path_5842" data-name="Path 5842" d="M15.526,27.162a.455.455,0,0,0,.281-.1.407.407,0,0,0,.061-.593l-1.574-1.82a.457.457,0,0,0-.623-.057.407.407,0,0,0-.061.592l1.574,1.821a.452.452,0,0,0,.342.153" transform="translate(-1.829 -10.752)" fill="#707070"/>
    </g>
  </g>
  <g id="Group_1618" data-name="Group 1618">
    <g id="Path_5851" data-name="Path 5851" transform="translate(5)" fill="#707070" opacity="0">
      <path d="M 35.5 35.5 L 0.5 35.5 L 0.5 0.5 L 35.5 0.5 L 35.5 16.5 L 35.5 35.5 Z" stroke="none"/>
      <path d="M 1 1 L 1 35 L 35 35 L 35 1 L 1 1 M 0 0 L 36 0 L 36 36 L 0 36 L 0 0 Z" stroke="none" fill="#707070"/>
    </g>
  </g>
</svg>
