<svg xmlns="http://www.w3.org/2000/svg" width="33.312" height="35.331" viewBox="0 0 33.312 35.331">
  <g id="Group_1573" data-name="Group 1573" transform="translate(0 0)">
    <g id="Group_1572" data-name="Group 1572">
      <g id="Group_1571" data-name="Group 1571">
        <path id="Path_5825" data-name="Path 5825" d="M405.254,58.974h-2.019V43.061c-.1,0-.19.014-.287.014h-.235a5.54,5.54,0,0,1-4.29-2.033,5.544,5.544,0,0,1-4.291,2.033H393.9a5.542,5.542,0,0,1-4.29-2.033,5.543,5.543,0,0,1-4.29,2.033h-.236a5.543,5.543,0,0,1-4.29-2.033,5.54,5.54,0,0,1-4.29,2.033h-.235c-.1,0-.192-.01-.287-.014V58.974h-2.019a1.01,1.01,0,0,0-1.01,1.01v3.533a.5.5,0,0,0,.5.5h32.3a.5.5,0,0,0,.505-.5V59.984A1.01,1.01,0,0,0,405.254,58.974ZM389.1,57.459a.5.5,0,0,1-.505.5h-9.085a.5.5,0,0,1-.5-.5V47.365a.5.5,0,0,1,.5-.5H388.6a.5.5,0,0,1,.505.5Zm11.1,3.029a.5.5,0,0,1-.5.5h-6.057a.5.5,0,0,1-.5-.5V47.365a.5.5,0,0,1,.5-.5H399.7a.5.5,0,0,1,.5.5Z" transform="translate(-372.952 -28.69)" fill="#b7b7b7"/>
        <path id="Path_5826" data-name="Path 5826" d="M397.159,53.987h-1.009a1.262,1.262,0,0,0,0,2.524h1.009a1.262,1.262,0,1,0,0-2.524Zm8.8-17.161V34.734a2.014,2.014,0,0,0-.265-1l-1.827-3.207a2.02,2.02,0,0,0-1.754-1.02H377.065a2.022,2.022,0,0,0-1.755,1.02l-1.826,3.207a2.015,2.015,0,0,0-.265,1V37.65h0v.691a3.032,3.032,0,0,0,3.029,3.029h.235a3.032,3.032,0,0,0,3.029-3.029V36.574a1.262,1.262,0,0,1,2.524,0v1.767a3.032,3.032,0,0,0,3.027,3.029h.236a3.032,3.032,0,0,0,3.029-3.029V36.827H388.3v-.253a1.262,1.262,0,0,1,2.523,0V37.65h.025v.691a3.032,3.032,0,0,0,3.029,3.029h.235a3.032,3.032,0,0,0,3.029-3.029V36.574a1.262,1.262,0,0,1,2.524,0v1.767A3.032,3.032,0,0,0,402.7,41.37h.235a3.033,3.033,0,0,0,3.029-3.029V36.827Z" transform="translate(-372.933 -29.508)" fill="#b7b7b7"/>
      </g>
    </g>
  </g>
</svg>
