<svg xmlns="http://www.w3.org/2000/svg" width="24.077" height="24.078" viewBox="0 0 24.077 24.078">
  <path id="Path_5798" data-name="Path 5798" d="M160.284,62.088a12.039,12.039,0,1,0,12.039,12.039A12.039,12.039,0,0,0,160.284,62.088Zm5.538,15.92a2.82,2.82,0,0,1-1.906,1.333c-.518.049-.518.421-3.4-.7a11.6,11.6,0,0,1-4.826-4.238,6.371,6.371,0,0,1-1.01-1.944,3.577,3.577,0,0,1-.146-.956,3.143,3.143,0,0,1,.988-2.343,1.047,1.047,0,0,1,.756-.351c.189,0,.378.027.54.027s.405-.1.637.464.8,1.944.875,2.084a.506.506,0,0,1,.021.491,3.165,3.165,0,0,1-.178.335l-.1.135c-.146.162-.3.362-.426.491s-.286.292-.124.573a8.418,8.418,0,0,0,1.571,1.938,7.636,7.636,0,0,0,2.273,1.393c.286.14.448.119.615-.07s.707-.816.9-1.1.378-.238.637-.14,1.647.772,1.933.912.469.211.54.324A2.316,2.316,0,0,1,165.822,78.008Z" transform="translate(-148.246 -62.088)" fill="#0d676f" fill-rule="evenodd"/>
</svg>
