<svg xmlns="http://www.w3.org/2000/svg" width="16.957" height="15.721" viewBox="0 0 16.957 15.721">
  <path id="Path_5870" data-name="Path 5870" d="M24.95,21.415a2.935,2.935,0,0,0-2.5-.564c-.65.266-1.065,1.284-1.486,1.8a.622.622,0,0,1-.806.175A11.338,11.338,0,0,1,14.5,17.983a.694.694,0,0,1,.088-.947,3.836,3.836,0,0,0,1.026-1.668,3.651,3.651,0,0,0-.46-1.975A4.676,4.676,0,0,0,13.7,11.2a2,2,0,0,0-2.173.318A4.408,4.408,0,0,0,10,15.007a4.977,4.977,0,0,0,.137,1.107A9.158,9.158,0,0,0,11.2,18.562a19.6,19.6,0,0,0,1.108,1.687,17.152,17.152,0,0,0,4.81,4.465,14.549,14.549,0,0,0,3,1.426,6.659,6.659,0,0,0,3.491.552,4.232,4.232,0,0,0,3.166-2.355,2.044,2.044,0,0,0,.147-1.2c-.181-.828-1.3-1.32-1.971-1.72" transform="translate(-9.997 -11.013)" fill="#fff" fill-rule="evenodd"/>
</svg>
