<svg xmlns="http://www.w3.org/2000/svg" width="22.024" height="17.894" viewBox="0 0 22.024 17.894">
  <path id="Path_5873" data-name="Path 5873" d="M110.331,27.45a12.85,12.85,0,0,0,12.663-10.54,12,12,0,0,0,.194-2.14v-.177c0-.2,0-.391-.013-.584a9.2,9.2,0,0,0,2.254-2.343,9.027,9.027,0,0,1-2.6.711,4.534,4.534,0,0,0,1.988-2.5,9.037,9.037,0,0,1-2.87,1.1,4.522,4.522,0,0,0-7.7,4.121,12.828,12.828,0,0,1-9.315-4.724,4.523,4.523,0,0,0,1.4,6.033,4.492,4.492,0,0,1-2.046-.565V15.9a4.519,4.519,0,0,0,3.625,4.429,4.5,4.5,0,0,1-2.041.078,4.525,4.525,0,0,0,4.221,3.139,9.071,9.071,0,0,1-5.612,1.934,9.24,9.24,0,0,1-1.078-.063,12.789,12.789,0,0,0,6.926,2.031" transform="translate(-103.405 -9.557)" fill="#fff"/>
</svg>
