<svg xmlns="http://www.w3.org/2000/svg" width="24.225" height="25.023" viewBox="0 0 24.225 25.023">
  <g id="Group_28429" data-name="Group 28429" transform="translate(-510 -1836.739)">
    <path id="Path_4647" data-name="Path 4647" d="M22.333,101.278A19.638,19.638,0,0,1,20.526,103a9.315,9.315,0,0,1-8.336,9.114V93.6l.074.011a6.8,6.8,0,0,1,.552-1.86,11.222,11.222,0,1,0,9.64,11.1,11.022,11.022,0,0,0-.125-1.578M6.8,94.676a15.761,15.761,0,0,0-1.971,7.539H1.958A9.312,9.312,0,0,1,6.8,94.676m-4.776,9.464H4.856a15.354,15.354,0,0,0,1.945,6.9,9.318,9.318,0,0,1-4.776-6.9m8.242,7.8c-1.886-.9-3.2-4.339-3.473-7.8h3.473Zm0-9.721H6.754c.146-3.661,1.508-7.486,3.512-8.437Z" transform="translate(510 1747.677)" fill="#0d676f"/>
    <path id="Path_4648" data-name="Path 4648" d="M13.7,90.043a5.6,5.6,0,0,0-.589.031,5.533,5.533,0,0,0-4.763,5.917c.325,3.752,3.776,6.549,4.958,7.4a.645.645,0,0,0,.777-.015c1.227-.958,5-4.208,5-7.96A5.379,5.379,0,0,0,13.7,90.043m0,7.887a2.51,2.51,0,1,1,2.51-2.51,2.511,2.511,0,0,1-2.51,2.51" transform="translate(515.149 1746.696)" fill="#0d676f"/>
  </g>
</svg>
