<svg xmlns="http://www.w3.org/2000/svg" width="22.855" height="15.997" viewBox="0 0 22.855 15.997">
  <path id="Path_5872" data-name="Path 5872" d="M173.325,13a2.861,2.861,0,0,0-2.02-2.02c-1.782-.479-8.929-.479-8.929-.479s-7.148,0-8.93.479A2.86,2.86,0,0,0,151.425,13a29.752,29.752,0,0,0-.477,5.5,29.742,29.742,0,0,0,.477,5.5,2.863,2.863,0,0,0,2.021,2.021c1.782.476,8.929.476,8.929.476s7.147,0,8.929-.476A2.864,2.864,0,0,0,173.324,24a29.743,29.743,0,0,0,.478-5.5,29.75,29.75,0,0,0-.478-5.5m-13.238,8.929v-6.86l5.937,3.43Z" transform="translate(-150.947 -10.5)" fill="#fff"/>
</svg>
